<?xml version="1.0" encoding="UTF-8"?>
<svg width="25px" height="25px" viewBox="0 0 25 25" version="1.1" xmlns="http://www.w3.org/2000/svg" xmlns:xlink="http://www.w3.org/1999/xlink">
    <!-- Generator: Sketch 51.3 (57544) - http://www.bohemiancoding.com/sketch -->
    <title>icon-website</title>
    <desc>Created with Sketch.</desc>
    <defs></defs>
    <g id="Page-1" stroke="none" stroke-width="1" fill="none" fill-rule="evenodd">
        <g id="icon-website" fill="#4E1A7C" fill-rule="nonzero">
            <path d="M12.5,8.88178e-16 C9.18479,1.77636e-15 6.00537,1.31696 3.66117,3.66117 C1.31696,6.00537 2.66454e-15,9.18479 0,12.5 C3.55271e-15,15.8152 1.31696,18.9946 3.66117,21.3388 C6.00537,23.683 9.18479,25 12.5,25 C15.8152,25 18.9946,23.683 21.3388,21.3388 C23.683,18.9946 25,15.8152 25,12.5 C25,9.18479 23.683,6.00537 21.3388,3.66117 C18.9946,1.31696 15.8152,1.44329e-15 12.5,0 Z M12.5,4.5 C16.9124,4.5 20.5,8.0877 20.5,12.5 C20.5,16.9124 16.9124,20.5 12.5,20.5 C8.08764,20.5 4.5,16.9124 4.5,12.5 C4.5,8.0877 8.08764,4.5 12.5,4.5 Z M12.5,5.5 C12.2687,5.5 12.0153,5.61689 11.7266,5.92969 C11.4378,6.24249 11.1438,6.74051 10.8945,7.37891 C10.6615,7.97581 10.4715,8.6998 10.3301,9.5 L14.6699,9.5 C14.5285,8.6998 14.3385,7.97581 14.1055,7.37891 C13.8562,6.74051 13.5622,6.24249 13.2734,5.92969 C12.9847,5.61689 12.7313,5.5 12.5,5.5 Z M10.5996,5.76562 C8.64111,6.31582 7.03707,7.6929 6.17969,9.5 L9.30664,9.5 C9.45913,8.5741 9.68224,7.73443 9.96289,7.01562 C10.1479,6.54192 10.3605,6.12572 10.5996,5.76562 Z M14.4004,5.76562 C14.6395,6.12572 14.8521,6.54192 15.0371,7.01562 C15.3178,7.73443 15.5409,8.5741 15.6934,9.5 L18.8203,9.5 C17.9629,7.6929 16.3589,6.31582 14.4004,5.76562 Z M5.79297,10.5 C5.60485,11.1338 5.5,11.8044 5.5,12.5 C5.5,13.1963 5.6045,13.8657 5.79297,14.5 L9.1875,14.5 C9.12027,13.8572 9.07227,13.1956 9.07227,12.5 C9.07227,11.8044 9.12027,11.1425 9.1875,10.5 L5.79297,10.5 Z M10.1953,10.5 C10.1238,11.1382 10.0723,11.8008 10.0723,12.5 C10.0723,13.1999 10.1237,13.8609 10.1953,14.5 L14.8047,14.5 C14.8763,13.8609 14.9277,13.1999 14.9277,12.5 C14.9277,11.8008 14.8762,11.1382 14.8047,10.5 L10.1953,10.5 Z M15.8125,10.5 C15.8797,11.1425 15.9277,11.8044 15.9277,12.5 C15.9277,13.1956 15.8797,13.8572 15.8125,14.5 L19.207,14.5 C19.3955,13.8657 19.5,13.1963 19.5,12.5 C19.5,11.8044 19.3952,11.1338 19.207,10.5 L15.8125,10.5 Z M6.18164,15.5 C7.03904,17.3054 8.64083,18.6822 10.5977,19.2324 C10.3591,18.8728 10.1475,18.459 9.96289,17.9863 C9.68224,17.2676 9.45913,16.4264 9.30664,15.5 L6.18164,15.5 Z M10.332,15.5 C10.4734,16.2999 10.6617,17.0267 10.8945,17.623 C11.1438,18.2615 11.4378,18.7595 11.7266,19.0723 C12.0153,19.3851 12.2687,19.5 12.5,19.5 C12.7313,19.5 12.9847,19.3851 13.2734,19.0723 C13.5622,18.7595 13.8562,18.2615 14.1055,17.623 C14.3383,17.0267 14.5266,16.2999 14.668,15.5 L10.332,15.5 Z M15.6934,15.5 C15.5409,16.4264 15.3178,17.2676 15.0371,17.9863 C14.8525,18.459 14.6409,18.8728 14.4023,19.2324 C16.3592,18.6822 17.961,17.3054 18.8184,15.5 L15.6934,15.5 Z" id="path0_fill"></path>
        </g>
    </g>
</svg>