<?xml version="1.0" encoding="UTF-8"?>
<svg width="25px" height="25px" viewBox="0 0 25 25" version="1.1" xmlns="http://www.w3.org/2000/svg" xmlns:xlink="http://www.w3.org/1999/xlink">
    <!-- Generator: Sketch 51.3 (57544) - http://www.bohemiancoding.com/sketch -->
    <title>icon-phone</title>
    <desc>Created with Sketch.</desc>
    <defs></defs>
    <g id="Page-1" stroke="none" stroke-width="1" fill="none" fill-rule="evenodd">
        <g id="icon-phone" fill="#4E1A7C" fill-rule="nonzero">
            <path d="M12.5,25 C5.59625,25 0,19.4037 0,12.5 C0,5.59625 5.59625,0 12.5,0 C19.4037,0 25,5.59625 25,12.5 C25,19.4037 19.4037,25 12.5,25 Z M15.1038,14.0625 C14.425,14.6088 13.8925,15.31 13.5538,16.1125 C11.4525,15.1875 9.8125,13.5475 8.8775,11.5175 C9.69,11.1075 10.39,10.575 10.9288,9.90625 C10.7913,8.39125 10.01,7.09375 8.8675,6.26 C7.34375,6.81125 6.2825,8.22625 6.24875,9.8925 C6.36375,14.6437 10.1063,18.4825 14.8038,18.7488 C16.575,18.7275 18.07,17.675 18.7375,16.1737 C17.905,14.99 16.6075,14.2088 15.1225,14.0638 L15.1038,14.0625 Z" id="path0_fill"></path>
        </g>
    </g>
</svg>