<?xml version="1.0" encoding="UTF-8"?>
<svg width="25px" height="25px" viewBox="0 0 25 25" version="1.1" xmlns="http://www.w3.org/2000/svg" xmlns:xlink="http://www.w3.org/1999/xlink">
    <!-- Generator: Sketch 51.3 (57544) - http://www.bohemiancoding.com/sketch -->
    <title>icon-address</title>
    <desc>Created with Sketch.</desc>
    <defs></defs>
    <g id="Page-1" stroke="none" stroke-width="1" fill="none" fill-rule="evenodd">
        <g id="icon-address" fill="#4E1A7C" fill-rule="nonzero">
            <path d="M12.5,8.88178e-16 C9.18479,1.77636e-15 6.00537,1.31696 3.66117,3.66117 C1.31696,6.00537 2.66454e-15,9.18479 0,12.5 C3.55271e-15,15.8152 1.31696,18.9946 3.66117,21.3388 C6.00537,23.683 9.18479,25 12.5,25 C15.8152,25 18.9946,23.683 21.3388,21.3388 C23.683,18.9946 25,15.8152 25,12.5 C25,9.18479 23.683,6.00537 21.3388,3.66117 C18.9946,1.31696 15.8152,1.44329e-15 12.5,0 Z M12.5,6 C15.2555,6 17.5,8.2445 17.5,11 C17.5,14.8348 13.8533,18.3537 12.8535,19.3535 L12.5,19.707 L12.1465,19.3535 C11.1454,18.3524 7.5,14.8248 7.5,11 C7.5,8.2445 9.7445,6 12.5,6 Z M12.5,7 C10.2849,7 8.5,8.7849 8.5,11 C8.5,13.9376 11.292,16.99 12.5,18.2285 C13.709,16.9904 16.5,13.9488 16.5,11 C16.5,8.7849 14.7151,7 12.5,7 Z M12.5,9 C13.5986,9 14.5,9.9013 14.5,11 C14.5,12.0986 13.5986,13 12.5,13 C11.4014,13 10.5,12.0986 10.5,11 C10.5,9.9013 11.4014,9 12.5,9 Z M12.5,10 C11.9418,10 11.5,10.4418 11.5,11 C11.5,11.5582 11.9418,12 12.5,12 C13.0582,12 13.5,11.5582 13.5,11 C13.5,10.4418 13.0582,10 12.5,10 Z" id="path0_fill"></path>
        </g>
    </g>
</svg>