<?xml version="1.0" encoding="UTF-8"?>
<svg width="25px" height="25px" viewBox="0 0 25 25" version="1.1" xmlns="http://www.w3.org/2000/svg" xmlns:xlink="http://www.w3.org/1999/xlink">
    <!-- Generator: Sketch 51.3 (57544) - http://www.bohemiancoding.com/sketch -->
    <title>icon-email</title>
    <desc>Created with Sketch.</desc>
    <defs></defs>
    <g id="Page-1" stroke="none" stroke-width="1" fill="none" fill-rule="evenodd">
        <g id="icon-email" fill="#4E1A7C" fill-rule="nonzero">
            <path d="M12.5,-3.15905009e-08 C19.4034,-3.15905009e-08 25,5.59656 25,12.5 C25,19.4034 19.4034,25 12.5,25 C5.59625,25 -3.15905009e-08,19.4034 -3.15905009e-08,12.5 C-3.15905009e-08,5.59656 5.59625,-3.15905009e-08 12.5,-3.15905009e-08 Z M20.0212,16.6184 L20.0172,8.57719 L15.2266,11.8744 L20.0212,16.6184 Z M14.4381,12.3172 L12.7331,13.4597 C12.6606,13.5069 12.5766,13.5313 12.4944,13.5313 C12.4113,13.5313 12.3288,13.5072 12.2563,13.46 L10.5109,12.2834 L5.57156,17.1703 L19.4366,17.1703 L14.4381,12.3172 Z M9.76844,11.7825 L4.98969,8.56063 L4.98969,16.5888 L9.76844,11.7825 Z M12.4941,12.5734 L19.4353,7.91062 L5.58312,7.91062 L12.4941,12.5734 Z" id="path0_fill"></path>
        </g>
    </g>
</svg>